# xmcd
#
# Track frame offsets:
#	183
#	12638
#	22250
#	33675
#	48160
#	59063
#	72953
#	84733
#	97685
#	107410
#	119138
#	133008
#	147065
#	164330
#	175278
#	184925
#	199685
#	212023
#	225158
#	238725
#
# Disc length: 3363 seconds
#
# Revision: 0
# Processed by: cddbd v1.5.2PL0 Copyright (c) Steve Scherf et al.
# Submitted via: EasyCDDAExtractor 12.1.0.1
#
DISCID=200d2114
DTITLE=Mud - Mud Featuring Les Gray
DYEAR=1982
DGENRE=Pop
TTITLE0=The Night Has A Thousand Eyes
TTITLE1=(Let Me Be) Your Teddy Bear
TTITLE2=Till I Kissed You
TTITLE3=Save The Last Dance For Me
TTITLE4=Only Sixteen
TTITLE5=Sealed With A Kiss
TTITLE6=Lipstick On Your Collar
TTITLE7=From A Jack To A King
TTITLE8=My Boy Lollipop
TTITLE9=Ain´T That A Shame
TTITLE10=Don´T Ever Change
TTITLE11=Let´S Dance
TTITLE12=Under The Boardwalk
TTITLE13=Itsy Bitsy Teeny Weeny Yello Polka Dot Bikini
TTITLE14=Dream Lover
TTITLE15=She Wears Red Feathers
TTITLE16=Poetry In Motion
TTITLE17=Blueberry Hill
TTITLE18=Shakin´ All Over
TTITLE19=Lucille
EXTD=
EXTT0=
EXTT1=
EXTT2=
EXTT3=
EXTT4=
EXTT5=
EXTT6=
EXTT7=
EXTT8=
EXTT9=
EXTT10=
EXTT11=
EXTT12=
EXTT13=
EXTT14=
EXTT15=
EXTT16=
EXTT17=
EXTT18=
EXTT19=
PLAYORDER=
